# xmcd
#
# Track frame offsets: 
#        150
#        30719
#        65636
#        81855
#        119769
#        139875
#        164844
#        181741
#        206435
#        228894
#        261079
#        280394
#
# Disc length: 3931 seconds
#
# Revision: 1
# Processed by: cddbd v1.5.2PL0 Copyright (c) Steve Scherf et al.
# Submitted via: ExactAudioCopy v0.99pb4
#
DISCID=b30f590c
DTITLE=Ришад Шафи - Ришад Шафи Представляет Гунеш
DYEAR=1999
DGENRE=Jazz
TTITLE0=Байконур
TTITLE1=Боль утраты
TTITLE2=Восточный экспресс
TTITLE3=Ритмы Кавказа
TTITLE4=Ветер с берегов Ганга
TTITLE5=Вьетнамские фрески
TTITLE6=Младший брат
TTITLE7=Плач Шасанем
TTITLE8=Восточный Сувенир
TTITLE9=Горькая судьба
TTITLE10=Свидание с милой
TTITLE11=Утоленная любовь
EXTD=YEAR: 1999
EXTT0=
EXTT1=
EXTT2=
EXTT3=
EXTT4=
EXTT5=
EXTT6=
EXTT7=
EXTT8=
EXTT9=
EXTT10=
EXTT11=
PLAYORDER=
